<?xml version="1.0" encoding="UTF-8" standalone="no"?>
<!-- Created with Inkscape (http://www.inkscape.org/) -->

<svg
   width="9.260416mm"
   height="9.2568722mm"
   viewBox="0 0 9.260416 9.2568722"
   version="1.1"
   id="svg1"
   xml:space="preserve"
   xmlns:inkscape="http://www.inkscape.org/namespaces/inkscape"
   xmlns:sodipodi="http://sodipodi.sourceforge.net/DTD/sodipodi-0.dtd"
   xmlns="http://www.w3.org/2000/svg"
   xmlns:svg="http://www.w3.org/2000/svg"><sodipodi:namedview
     id="namedview1"
     pagecolor="#ffffff"
     bordercolor="#000000"
     borderopacity="0.25"
     inkscape:showpageshadow="2"
     inkscape:pageopacity="0.0"
     inkscape:pagecheckerboard="0"
     inkscape:deskcolor="#d1d1d1"
     inkscape:document-units="mm" /><defs
     id="defs1" /><g
     inkscape:label="Camada 1"
     inkscape:groupmode="layer"
     id="layer1"
     transform="translate(-83.905069,-112.49931)"><path
       style="fill:#000000;stroke-width:0.109366"
       d="m 84.898469,121.72903 c -0.455578,-0.09 -0.876379,-0.52012 -0.964727,-0.98597 -0.03823,-0.20159 -0.03823,-7.02555 0,-7.22714 0.09073,-0.47839 0.509582,-0.89724 0.987968,-0.98797 0.201587,-0.0382 7.025549,-0.0382 7.227137,0 0.478386,0.0907 0.897243,0.50958 0.987967,0.98797 0.03823,0.20159 0.03823,7.02555 0,7.22714 -0.09072,0.47838 -0.509581,0.89724 -0.987967,0.98796 -0.183209,0.0348 -7.074106,0.0329 -7.250378,-0.002 z m 2.86793,-1.86713 c 0.03474,-0.0347 0.04546,-0.10816 0.04544,-0.31106 l -3.4e-5,-0.2656 H 87.52739 c -0.266204,0 -0.29353,-0.006 -0.426778,-0.0878 -0.117118,-0.0723 -0.16411,-0.1287 -0.265006,-0.3183 -0.08299,-0.15594 -0.17482,-0.27741 -0.284012,-0.37566 -0.08875,-0.0799 -0.15184,-0.15474 -0.140194,-0.16639 0.04041,-0.0404 0.216983,-0.0209 0.329304,0.0364 0.0621,0.0317 0.148741,0.10656 0.192525,0.16639 0.214089,0.29253 0.319588,0.36071 0.557269,0.36012 0.191649,-4.4e-4 0.317088,-0.0426 0.337755,-0.11346 0.0082,-0.0281 0.04556,-0.11302 0.08304,-0.18873 l 0.06814,-0.13766 -0.06208,-0.0126 c -0.298811,-0.0607 -0.404813,-0.0921 -0.565514,-0.16752 -0.407596,-0.19139 -0.609201,-0.5266 -0.657177,-1.09266 -0.02335,-0.27557 0.03876,-0.5346 0.179011,-0.74649 0.09841,-0.14867 0.100597,-0.158 0.07259,-0.30953 -0.02672,-0.14456 -0.0084,-0.37994 0.04181,-0.53828 0.03544,-0.11165 0.342194,-0.0486 0.656789,0.13501 l 0.165759,0.0967 0.220192,-0.0421 c 0.281944,-0.0539 0.727328,-0.0539 1.009702,1.1e-4 l 0.220965,0.0423 0.142179,-0.0875 c 0.186009,-0.11446 0.447253,-0.20499 0.559682,-0.19395 0.07671,0.008 0.09456,0.0254 0.124283,0.12453 0.03819,0.12736 0.04515,0.42189 0.01266,0.53533 -0.01593,0.0556 0.0014,0.10477 0.07495,0.21263 0.129215,0.18949 0.183031,0.38758 0.183031,0.67375 0,0.46472 -0.1111,0.75889 -0.38097,1.00874 -0.180387,0.16701 -0.379149,0.25871 -0.675207,0.3115 -0.208691,0.0372 -0.241976,0.0607 -0.183487,0.1293 0.107816,0.1265 0.125805,0.24107 0.11821,0.75286 -0.0069,0.4663 -0.0036,0.50278 0.05064,0.55702 0.07574,0.0757 0.10004,0.0738 0.348522,-0.0273 0.346092,-0.14084 0.656305,-0.34496 0.925747,-0.60914 0.393091,-0.38542 0.64573,-0.81451 0.783718,-1.33108 0.09452,-0.35386 0.09462,-1.00548 2.18e-4,-1.36 -0.214814,-0.80653 -0.756933,-1.47654 -1.493748,-1.84615 -0.604135,-0.30305 -1.263916,-0.39092 -1.911293,-0.25453 -0.87557,0.18446 -1.608304,0.7463 -2.003729,1.53642 -0.544594,1.08817 -0.307652,2.42956 0.577815,3.27114 0.23737,0.22561 0.421555,0.35679 0.689532,0.49111 0.382201,0.19157 0.486382,0.2179 0.562192,0.14209 z"
       id="path1" /></g></svg>
