<?xml version="1.0" encoding="UTF-8" standalone="no"?>
<!-- Created with Inkscape (http://www.inkscape.org/) -->

<svg
   width="9.2604151mm"
   height="9.2730474mm"
   viewBox="0 0 9.2604151 9.2730475"
   version="1.1"
   id="svg1"
   xml:space="preserve"
   xmlns:inkscape="http://www.inkscape.org/namespaces/inkscape"
   xmlns:sodipodi="http://sodipodi.sourceforge.net/DTD/sodipodi-0.dtd"
   xmlns="http://www.w3.org/2000/svg"
   xmlns:svg="http://www.w3.org/2000/svg"><sodipodi:namedview
     id="namedview1"
     pagecolor="#ffffff"
     bordercolor="#000000"
     borderopacity="0.25"
     inkscape:showpageshadow="2"
     inkscape:pageopacity="0.0"
     inkscape:pagecheckerboard="0"
     inkscape:deskcolor="#d1d1d1"
     inkscape:document-units="mm" /><defs
     id="defs1" /><g
     inkscape:label="Camada 1"
     inkscape:groupmode="layer"
     id="layer1"
     transform="translate(-111.93356,-142.39565)"><path
       style="fill:#272629;fill-opacity:1;stroke-width:0.454792"
       d="m 115.3003,151.54027 c -1.40589,-0.46629 -2.38925,-1.31679 -2.98508,-2.58175 -0.33233,-0.70555 -0.38002,-0.93412 -0.38163,-1.82912 -0.003,-1.22442 0.22968,-1.97554 0.87131,-2.8224 1.93084,-2.54847 5.58691,-2.54847 7.51776,0 0.64162,0.84686 0.8735,1.59798 0.8713,2.8224 -0.002,0.895 -0.0492,1.12357 -0.38161,1.82912 -0.77315,1.64139 -2.26979,2.63795 -4.06262,2.70511 -0.58066,0.0217 -1.16072,-0.0276 -1.44943,-0.12336 z m 3.30501,-1.7337 c 0.65982,-0.33285 0.8755,-0.83631 0.941,-2.1965 0.0888,-1.84529 -0.0309,-2.49095 -0.56039,-3.02039 -0.43062,-0.43064 -0.47199,-0.44422 -1.61357,-0.52981 -1.64183,-0.12309 -2.78735,0.0593 -3.2445,0.51637 -0.19153,0.19152 -0.39736,0.56005 -0.45742,0.81896 -0.14748,0.6359 -0.13822,2.63034 0.0153,3.29672 0.25557,1.10919 0.70296,1.31446 2.87804,1.32052 1.31373,0.004 1.70423,-0.0357 2.04152,-0.20587 z m -3.84412,-0.54068 c -0.16415,-0.0857 -0.36641,-0.29008 -0.44947,-0.45423 -0.1865,-0.36862 -0.2088,-2.9679 -0.0295,-3.43949 0.22526,-0.59249 0.3997,-0.64143 2.30093,-0.64556 l 1.76419,-0.003 0.32027,0.38063 c 0.31789,0.37779 0.31998,0.39302 0.28144,2.04261 -0.0526,2.24911 -0.002,2.19778 -2.23787,2.24256 -1.17407,0.0236 -1.73784,-0.0121 -1.95001,-0.1227 z m 2.62206,-0.93626 c 1.10845,-0.67582 0.82671,-2.39369 -0.45559,-2.77787 -0.39186,-0.11741 -0.52966,-0.10425 -0.92211,0.0881 -0.51894,0.25431 -1.00607,0.89864 -1.00607,1.33075 0,0.84461 0.73951,1.6019 1.5643,1.6019 0.23164,0 0.60039,-0.10928 0.81947,-0.24284 z m -1.48676,-0.65327 c -0.86489,-0.86489 0.43753,-2.10653 1.33008,-1.26802 0.59523,0.55919 0.16951,1.56338 -0.66279,1.56338 -0.23445,0 -0.48111,-0.10919 -0.66729,-0.29536 z m 2.57255,-2.15412 c 0.0583,-0.30583 -0.1449,-0.47872 -0.44919,-0.38214 -0.24494,0.0777 -0.34112,0.41687 -0.16747,0.59052 0.15769,0.15768 0.57366,0.0171 0.61666,-0.20838 z"
       id="path2" /></g></svg>
