<?xml version="1.0" encoding="UTF-8" standalone="no"?>
<!-- Created with Inkscape (http://www.inkscape.org/) -->

<svg
   width="9.2604113mm"
   height="9.34128mm"
   viewBox="0 0 9.2604113 9.34128"
   version="1.1"
   id="svg1"
   xml:space="preserve"
   xmlns:inkscape="http://www.inkscape.org/namespaces/inkscape"
   xmlns:sodipodi="http://sodipodi.sourceforge.net/DTD/sodipodi-0.dtd"
   xmlns="http://www.w3.org/2000/svg"
   xmlns:svg="http://www.w3.org/2000/svg"><sodipodi:namedview
     id="namedview1"
     pagecolor="#ffffff"
     bordercolor="#000000"
     borderopacity="0.25"
     inkscape:showpageshadow="2"
     inkscape:pageopacity="0.0"
     inkscape:pagecheckerboard="0"
     inkscape:deskcolor="#d1d1d1"
     inkscape:document-units="mm" /><defs
     id="defs1" /><g
     inkscape:label="Camada 1"
     inkscape:groupmode="layer"
     id="layer1"
     transform="translate(-99.568146,-142.90031)"><path
       style="fill:#272629;fill-opacity:1;stroke-width:0.4561"
       d="m 102.74186,152.05127 c -0.92219,-0.30556 -1.43593,-0.64081 -2.08035,-1.35755 -0.79622,-0.8856 -1.087288,-1.71777 -1.093091,-3.12515 -0.0039,-1.04359 0.02979,-1.21923 0.379713,-1.95795 0.901918,-1.90392 2.968728,-3.00613 4.951818,-2.64074 3.86038,0.71131 5.27076,5.38532 2.42753,8.04484 -0.85463,0.79941 -1.71318,1.15699 -2.91797,1.21535 -0.73993,0.0359 -1.15379,-0.009 -1.66765,-0.1788 z m -0.007,-3.72848 0.0333,-1.84031 h -0.60653 -0.60652 v 1.87709 1.8771 l 0.57322,-0.0368 0.57321,-0.0368 z m 1.83718,0.78109 c 0,-1.30149 0.1571,-1.65599 0.73388,-1.65599 0.47913,0 0.59355,0.3285 0.59355,1.70394 v 1.08484 l 0.57322,-0.0368 0.57321,-0.0368 0.0374,-1.02575 c 0.0534,-1.46393 -0.0529,-2.0252 -0.46084,-2.43314 -0.27126,-0.27126 -0.45161,-0.34242 -0.86788,-0.34242 -0.29779,0 -0.65149,0.0883 -0.8163,0.20369 -0.20624,0.14447 -0.30471,0.16202 -0.3386,0.0604 -0.0282,-0.0848 -0.29025,-0.14335 -0.64111,-0.14335 h -0.59332 v 1.79003 c 0,0.98452 0.0362,1.82624 0.0805,1.87048 0.0442,0.0443 0.31576,0.0804 0.60337,0.0804 h 0.52294 z m -2.03084,-3.30383 c 0.44078,-0.3989 0.12104,-1.24839 -0.46988,-1.24839 -0.23734,0 -0.63687,0.45422 -0.63687,0.72405 0,0.29329 0.40717,0.72406 0.68438,0.72406 0.11093,0 0.30099,-0.0899 0.42237,-0.19972 z"
       id="path1" /></g></svg>
