<?xml version="1.0" encoding="UTF-8" standalone="no"?>
<!-- Created with Inkscape (http://www.inkscape.org/) -->

<svg
   width="50.099476mm"
   height="20.480841mm"
   viewBox="0 0 50.099476 20.480841"
   version="1.1"
   id="svg1"
   xml:space="preserve"
   xmlns:inkscape="http://www.inkscape.org/namespaces/inkscape"
   xmlns:sodipodi="http://sodipodi.sourceforge.net/DTD/sodipodi-0.dtd"
   xmlns="http://www.w3.org/2000/svg"
   xmlns:svg="http://www.w3.org/2000/svg"><sodipodi:namedview
     id="namedview1"
     pagecolor="#ffffff"
     bordercolor="#000000"
     borderopacity="0.25"
     inkscape:showpageshadow="2"
     inkscape:pageopacity="0.0"
     inkscape:pagecheckerboard="0"
     inkscape:deskcolor="#d1d1d1"
     inkscape:document-units="mm" /><defs
     id="defs1" /><g
     inkscape:label="Camada 1"
     inkscape:groupmode="layer"
     id="layer1"
     transform="translate(-119.93157,-97.953214)"><path
       style="fill:#272629;fill-opacity:1;stroke-width:0.584733"
       d="m 162.45346,110.05169 c -1.80758,-0.59952 -3.0719,-1.69302 -3.83797,-3.3194 -0.42728,-0.90713 -0.48859,-1.201 -0.49066,-2.35172 -0.004,-1.57426 0.2953,-2.53998 1.12025,-3.6288 2.48251,-3.2766 7.18318,-3.2766 9.66569,0 0.82495,1.08882 1.12307,2.05454 1.12025,3.6288 -0.002,1.15072 -0.0633,1.44459 -0.49065,2.35172 -0.99404,2.11037 -2.9183,3.39166 -5.22336,3.47801 -0.74657,0.0279 -1.49236,-0.0355 -1.86355,-0.15861 z m 4.24929,-2.22904 c 0.84834,-0.42795 1.12565,-1.07526 1.20986,-2.82407 0.11424,-2.37252 -0.0397,-3.20265 -0.7205,-3.88337 -0.55366,-0.55367 -0.60685,-0.57114 -2.07459,-0.68118 -2.11092,-0.15826 -3.58374,0.0762 -4.1715,0.6639 -0.24625,0.24625 -0.51089,0.72007 -0.58811,1.05295 -0.18962,0.81759 -0.17771,3.38187 0.0196,4.23865 0.32859,1.4261 0.90381,1.69002 3.70034,1.69781 1.68909,0.005 2.19116,-0.0459 2.62481,-0.26469 z m -4.94244,-0.69517 c -0.21104,-0.11013 -0.4711,-0.37296 -0.57788,-0.584 -0.23979,-0.47394 -0.26846,-3.81587 -0.0379,-4.42221 0.28962,-0.76177 0.5139,-0.82469 2.95834,-0.83 l 2.26825,-0.004 0.41177,0.48938 c 0.40872,0.48573 0.41141,0.50531 0.36185,2.62622 -0.0676,2.89171 -0.002,2.82571 -2.87726,2.88328 -1.50951,0.0303 -2.23436,-0.0155 -2.50715,-0.15775 z m 3.37122,-1.20376 c 1.42516,-0.86891 1.06292,-3.0776 -0.58576,-3.57155 -0.50381,-0.15095 -0.68099,-0.13403 -1.18557,0.11323 -0.6672,0.32696 -1.29351,1.15539 -1.29351,1.71096 0,1.08593 0.95079,2.05959 2.01124,2.05959 0.29782,0 0.77193,-0.14051 1.0536,-0.31223 z m -1.91155,-0.83991 c -1.11199,-1.11201 0.56254,-2.7084 1.71011,-1.63032 0.7653,0.71896 0.21794,2.01006 -0.85216,2.01006 -0.30144,0 -0.61857,-0.14038 -0.85795,-0.37974 z m 3.30757,-2.76959 c 0.075,-0.39321 -0.1863,-0.61549 -0.57753,-0.49132 -0.31492,0.0999 -0.43858,0.53598 -0.21532,0.75924 0.20274,0.20273 0.73756,0.022 0.79285,-0.26792 z"
       id="path2" /></g></svg>
