<?xml version="1.0" encoding="UTF-8" standalone="no"?>
<!-- Created with Inkscape (http://www.inkscape.org/) -->

<svg
   width="50.099445mm"
   height="12.263601mm"
   viewBox="0 0 50.099445 12.263601"
   version="1.1"
   id="svg1"
   xml:space="preserve"
   inkscape:export-filename="logo-instagram.svg"
   inkscape:export-xdpi="96"
   inkscape:export-ydpi="96"
   xmlns:inkscape="http://www.inkscape.org/namespaces/inkscape"
   xmlns:sodipodi="http://sodipodi.sourceforge.net/DTD/sodipodi-0.dtd"
   xmlns="http://www.w3.org/2000/svg"
   xmlns:svg="http://www.w3.org/2000/svg"><sodipodi:namedview
     id="namedview1"
     pagecolor="#ffffff"
     bordercolor="#000000"
     borderopacity="0.25"
     inkscape:showpageshadow="2"
     inkscape:pageopacity="0.0"
     inkscape:pagecheckerboard="0"
     inkscape:deskcolor="#d1d1d1"
     inkscape:document-units="mm" /><defs
     id="defs1" /><g
     inkscape:label="Camada 1"
     inkscape:groupmode="layer"
     id="layer1"
     transform="translate(-119.93161,-97.953214)"><path
       style="fill:#272629;fill-opacity:1;stroke-width:0.586412"
       d="m 124.01209,109.71869 c -1.18568,-0.39286 -1.8462,-0.82389 -2.67473,-1.74541 -1.02372,-1.13863 -1.39795,-2.20856 -1.40541,-4.01804 -0.005,-1.34175 0.0383,-1.56757 0.4882,-2.51736 1.15961,-2.447892 3.81694,-3.865009 6.36661,-3.395217 4.96333,0.914527 6.77668,6.923957 3.12111,10.343327 -1.09881,1.02781 -2.20266,1.48756 -3.75167,1.56259 -0.95134,0.0461 -1.48344,-0.011 -2.14411,-0.22989 z m -0.009,-4.79374 0.0428,-2.36611 h -0.77982 -0.77981 v 2.4134 2.4134 l 0.73699,-0.0473 0.73698,-0.0473 z m 2.36207,1.00425 c 0,-1.67333 0.20199,-2.12912 0.94357,-2.12912 0.61601,0 0.76313,0.42236 0.76313,2.19077 v 1.39479 l 0.73699,-0.0473 0.73698,-0.0473 0.0481,-1.31881 c 0.0687,-1.88219 -0.068,-2.60383 -0.5925,-3.12832 -0.34876,-0.34876 -0.58065,-0.44025 -1.11585,-0.44025 -0.38287,0 -0.83763,0.11349 -1.04952,0.26189 -0.26517,0.18574 -0.39177,0.2083 -0.43534,0.0776 -0.0363,-0.10899 -0.37318,-0.18431 -0.82428,-0.18431 h -0.76284 v 2.30146 c 0,1.26581 0.0466,2.34802 0.10344,2.4049 0.0569,0.0569 0.40598,0.10344 0.77577,0.10344 h 0.67234 z m -2.61106,-4.24776 c 0.56671,-0.51287 0.15562,-1.60507 -0.60414,-1.60507 -0.30515,0 -0.81883,0.58399 -0.81883,0.93092 0,0.37708 0.52351,0.93093 0.87992,0.93093 0.14262,0 0.38699,-0.11555 0.54305,-0.25678 z"
       id="path1" /></g></svg>
